<svg width="40" height="40" viewBox="0 0 40 40" fill="none" xmlns="http://www.w3.org/2000/svg">
<circle cx="20" cy="20" r="20" fill="#0B3A23"/>
<path d="M38.545 20C38.545 30.2424 30.2419 38.5455 19.9996 38.5455C9.75718 38.5455 1.4541 30.2424 1.4541 20C1.4541 9.75767 9.75718 1.45459 19.9996 1.45459C30.2419 1.45459 38.545 9.75767 38.545 20Z" fill="#F7F7F7"/>
<path d="M8.47183 28.2182C9.78093 30.4 11.7363 30.695 13.0536 30.0364C14.3627 29.3819 11.823 28.2968 11.5261 27.1273C11.0629 25.3029 11.9625 22.3273 11.9625 22.3273C11.9625 22.3273 15.41 27.1273 14.0718 30.4727C13.49 31.9273 17.5603 33.0618 19.3082 31.5636C20.3264 30.6909 19.6716 28.5819 19.6716 28.5819H22.8718C22.8718 28.5819 22.6217 31.2052 23.7445 31.7818C25.09 32.4727 26.7991 32.3818 27.9991 31.7818C29.1991 31.1818 28.5809 28.5819 28.5809 28.5819L31.3082 23.2727C31.3082 23.2727 31.0504 27.5637 32.617 27.5637C34.1836 27.5637 32.617 15.4909 30.2173 13.0182C27.8176 10.5455 21.49 10.4 21.49 10.4C21.49 10.4 14.5809 7.85457 10.0719 9.89092C5.56282 11.9273 6.00508 24.107 8.47183 28.2182Z" fill="#1FB870"/>
<path d="M22.4363 18.6908C24.4 14.3999 21.4909 10.3999 21.4909 10.3999C21.4909 10.3999 23.2491 15.6129 21.4909 18.1817C19.0182 21.7942 12.7637 20.8726 12.7637 22.3271C12.7637 23.7817 20.6466 22.6015 22.4363 18.6908Z" fill="#0B3A23"/>
<ellipse cx="11.8184" cy="16.7272" rx="1.09091" ry="1.09092" fill="#0B3A23"/>
</svg>
